<?xml version="1.0" encoding="UTF-8" standalone="no"?>
<svg
   xmlns:dc="http://purl.org/dc/elements/1.1/"
   xmlns:cc="http://creativecommons.org/ns#"
   xmlns:rdf="http://www.w3.org/1999/02/22-rdf-syntax-ns#"
   xmlns:svg="http://www.w3.org/2000/svg"
   xmlns="http://www.w3.org/2000/svg"
   xmlns:xlink="http://www.w3.org/1999/xlink"
   xmlns:sodipodi="http://sodipodi.sourceforge.net/DTD/sodipodi-0.dtd"
   xmlns:inkscape="http://www.inkscape.org/namespaces/inkscape"
   version="1.1"
   width="759.52649"
   height="301.2735"
   id="svg521"
   viewBox="0 0 759.52649 301.27351"
   sodipodi:docname="goa-candolim.svg"
   inkscape:version="1.0.1 (3bc2e813f5, 2020-09-07)">
  <metadata
     id="metadata527">
    <rdf:RDF>
      <cc:Work
         rdf:about="">
        <dc:format>image/svg+xml</dc:format>
        <dc:type
           rdf:resource="http://purl.org/dc/dcmitype/StillImage" />
        <dc:title />
      </cc:Work>
    </rdf:RDF>
  </metadata>
  <defs
     id="defs525" />
  <sodipodi:namedview
     pagecolor="#ffffff"
     bordercolor="#666666"
     borderopacity="1"
     objecttolerance="10"
     gridtolerance="10"
     guidetolerance="10"
     inkscape:pageopacity="0"
     inkscape:pageshadow="2"
     inkscape:window-width="1920"
     inkscape:window-height="986"
     id="namedview523"
     showgrid="false"
     inkscape:zoom="1.3439154"
     inkscape:cx="421.70842"
     inkscape:cy="198.29028"
     inkscape:window-x="-11"
     inkscape:window-y="-11"
     inkscape:window-maximized="1"
     inkscape:current-layer="svg521"
     inkscape:document-rotation="0"
     showguides="true" />
  <g
     id="Layer1000"
     transform="translate(0.76353964,-99.347507)">
    <defs
       id="defs16">
      <linearGradient
         id="grad1">
        <stop
           offset="0.0000%"
           stop-color="#23bcc3"
           stop-opacity="1.0000"
           id="stop8" />
        <stop
           offset="62.0000%"
           stop-color="#0090bc"
           stop-opacity="1.0000"
           id="stop10" />
        <stop
           offset="100.0000%"
           stop-color="#0087bc"
           stop-opacity="1.0000"
           id="stop12" />
      </linearGradient>
      <linearGradient
         xlink:href="#grad1"
         id="grad2"
         x1="0"
         y1="0"
         x2="0"
         y2="1"
         gradientTransform="rotate(160,0.5,0.5)"
         gradientUnits="objectBoundingBox" />
    </defs>
    <g
       id="Layer1003"
       transform="matrix(1.9986121,0,0,1.9394837,-777.02953,-337.22924)" />
    <g
       id="Layer1004"
       transform="matrix(2.4409333,0,0,2.2965233,-952.48861,-434.68694)">
      <path
         d="m 475.0084,317.9656 c 16.1438,8.9023 29.0006,13.2874 41.0601,13.2874 14.7485,0 25.9098,-4.2858 31.5909,-6.8593 0.5986,-0.3002 0.7978,-0.5831 0.7978,-0.9808 0,-0.2979 -0.1992,-0.5987 -0.5987,-0.5987 -0.2984,0 -0.7978,0.2009 -1.3947,0.4001 -6.8772,2.7744 -14.6504,3.8539 -19.6329,3.8539 -4.9832,0 -20.1306,-0.4831 -41.9572,-11.694 l -20.429,-10.5309 c 6.577,-4.2858 17.6395,-15.9458 17.6395,-33.4855 0,-23.1198 -16.7436,-37.3713 -39.1666,-37.3713 -27.5059,0 -39.2647,22.8213 -39.2647,38.9669 0,17.9386 11.361,39.1654 38.9669,39.1654 5.281,0 12.0577,-1.4957 15.6456,-3.3892 z m -61.888,-47.8028 v 0 c 0,-21.8255 12.4573,-32.7876 29.1005,-32.7876 15.7454,0 30.2965,12.8556 30.2965,36.7732 0,29.0006 -18.5366,34.1834 -27.5065,34.1834 -17.9392,0 -31.8905,-14.95 -31.8905,-38.169 z m 84.0882,13.4542 v 0 -12.4578 c 0,-13.1564 0,-15.5463 -0.1998,-18.2377 -0.1991,-2.6907 -0.6985,-4.2857 -3.5878,-4.6835 -0.6985,-0.1016 -2.1931,-0.1986 -2.9892,-0.1986 -0.2996,0 -0.6985,-0.4 -0.6985,-0.6985 0,-0.4988 0.3989,-0.6979 1.3953,-0.6979 3.9867,0 9.2689,0.1991 10.065,0.1991 0.7978,0 6.2791,-0.1991 8.8706,-0.1991 0.9964,0 1.4946,0.1991 1.4946,0.6979 0,0.2985 -0.399,0.6985 -0.7979,0.6985 -0.5974,0 -1.0956,0 -2.1913,0.1986 -2.293,0.3978 -2.7918,1.8935 -2.9904,4.6835 -0.1986,2.6914 -0.1986,5.0813 -0.1986,18.2377 v 11.8592 c 0,12.2592 2.6908,17.3405 6.4772,20.7292 4.2852,3.8863 8.0716,4.5842 13.0553,4.5842 5.3809,0 10.5638,-2.3922 13.553,-5.9801 4.086,-4.8827 4.9831,-11.8592 4.9831,-20.5289 v -10.6636 c 0,-13.1564 -0.0993,-15.5463 -0.1991,-18.2377 -0.1005,-2.6907 -0.5987,-4.2857 -3.488,-4.6835 -0.6979,-0.1016 -2.1925,-0.1986 -2.9892,-0.1986 -0.4001,0 -0.6985,-0.4 -0.6985,-0.6985 0,-0.4988 0.3989,-0.6979 1.3953,-0.6979 3.8869,0 8.9693,0.1991 9.4681,0.1991 0.598,0 4.7828,-0.1991 7.3742,-0.1991 0.9964,0 1.3959,0.1991 1.3959,0.6979 0,0.2985 -0.3002,0.6985 -0.6979,0.6985 -0.5987,0 -1.0957,0 -2.1914,0.1986 -2.3929,0.4971 -2.8922,1.8935 -3.0908,4.6835 -0.1992,2.6914 -0.0993,5.0813 -0.0993,18.2377 v 9.0686 c 0,9.169 -1.1956,19.4332 -8.1721,25.4133 -6.3784,5.4808 -13.1552,6.1793 -18.3381,6.1793 -2.8893,0 -12.0577,-0.1986 -18.237,-5.9807 -4.2852,-3.985 -7.6727,-9.8664 -7.6727,-22.2227 z m 82.6911,-12.4578 v 0 c 0,-13.1564 0,-15.5463 0.0999,-18.2377 0.2009,-2.9891 0.6979,-4.1864 3.0902,-4.6835 0.9969,-0.1986 1.5933,-0.1986 2.1919,-0.1986 0.2985,0 0.698,-0.4 0.698,-0.6985 0,-0.4988 -0.3995,-0.6979 -1.3959,-0.6979 -2.6913,0 -8.3712,0.1991 -8.769,0.1991 -0.4993,0 -5.9801,-0.1991 -8.87,-0.1991 -0.9964,0 -1.3959,0.1991 -1.3959,0.6979 0,0.2985 0.3002,0.6985 0.698,0.6985 0.5986,0 1.6943,0.097 2.6907,0.2979 1.8935,0.3978 2.5914,1.6949 2.7906,4.5842 0.1986,2.6914 0.1986,5.0813 0.1986,18.2377 v 14.9477 c 0,8.172 -0.0993,14.8507 -0.4971,18.3386 -0.3002,2.4905 -0.5986,4.0855 -2.2929,4.485 -0.7979,0.1991 -1.8935,0.3977 -2.6908,0.3977 -0.4976,0 -0.6962,0.4001 -0.6962,0.6985 0,0.4971 0.4971,0.698 1.3942,0.698 2.6907,0 8.1715,-0.3002 8.6708,-0.3002 0.3978,0 6.0777,0.3002 10.9627,0.3002 0.9964,0 1.3941,-0.3002 1.3941,-0.698 0,-0.2984 -0.1991,-0.6985 -0.6979,-0.6985 -0.7961,0 -2.689,-0.1986 -3.9862,-0.3977 -2.5908,-0.3995 -2.8893,-1.9945 -3.1901,-4.485 -0.3977,-3.4879 -0.3977,-10.1666 -0.3977,-18.3386 z m 34.0605,0 v 0 c 0,-13.1564 0,-15.5463 0.0998,-18.2377 0.1986,-2.9891 0.6957,-4.2857 3.2871,-4.7851 0.9987,-0.097 2.293,-0.1986 2.8916,-0.1986 0.2985,0 0.6963,-0.2984 0.6963,-0.5969 0,-0.4988 -0.4971,-0.6979 -1.3942,-0.6979 -2.6907,0 -9.2695,0.1991 -9.6672,0.1991 -0.4977,0 -5.979,-0.1991 -9.9663,-0.1991 -0.9964,0 -1.3942,0.1991 -1.3942,0.6979 0,0.2985 0.3978,0.6985 0.6962,0.6985 0.7979,0 2.293,0.097 2.991,0.1986 2.8899,0.3978 3.3892,1.7942 3.5878,4.6835 0.1992,2.6914 0.1992,5.0813 0.1992,18.2377 v 14.9477 c 0,8.172 0,14.8507 -0.4994,18.3386 -0.3977,2.4905 -0.5986,4.0855 -2.2912,4.485 -0.7973,0.1991 -1.8953,0.3977 -2.6908,0.3977 -0.4987,0 -0.6979,0.4001 -0.6979,0.6985 0,0.4971 0.4993,0.698 1.3964,0.698 1.3936,0 3.2871,-0.1016 5.0813,-0.2009 1.6944,-0.0993 3.1901,-0.0993 3.5879,-0.0993 2.5914,0 5.58,0.0993 9.5679,0.1986 4.0849,0.2009 8.9693,0.3002 15.2462,0.3002 4.6858,0 4.9837,-0.3002 5.5829,-2.293 0.6956,-2.4904 1.2943,-7.5734 1.2943,-8.4705 0,-0.8966 -0.1986,-1.2943 -0.5987,-1.2943 -0.497,0 -0.7972,0.497 -0.8971,1.0957 -0.2979,1.692 -0.9958,3.4885 -2.0921,4.7828 -2.0921,2.4921 -5.9801,2.5914 -10.5643,2.5914 -6.8755,0 -10.2642,-0.5986 -11.6606,-1.9928 -1.5928,-1.4951 -1.7919,-6.5787 -1.7919,-19.0348 z m 50.6015,0 v 0 c 0,-13.1564 0,-15.5463 0.0993,-18.2377 0.2009,-2.9891 0.6979,-4.2857 3.2893,-4.7851 0.9964,-0.097 2.293,-0.1986 2.8899,-0.1986 0.3002,0 0.698,-0.2984 0.698,-0.5969 0,-0.4988 -0.4988,-0.6979 -1.3959,-0.6979 -2.6907,0 -9.2678,0.1991 -9.6661,0.1991 -0.4988,0 -5.9801,-0.1991 -9.9657,-0.1991 -0.9964,0 -1.3959,0.1991 -1.3959,0.6979 0,0.2985 0.3995,0.6985 0.698,0.6985 0.7972,0 2.2929,0.097 2.9892,0.1986 2.8899,0.3978 3.3892,1.7942 3.5878,4.6835 0.1992,2.6914 0.1992,5.0813 0.1992,18.2377 v 14.9477 c 0,8.172 0,14.8507 -0.4977,18.3386 -0.3994,2.4905 -0.5986,4.0855 -2.2929,4.485 -0.7979,0.1991 -1.8935,0.3977 -2.6908,0.3977 -0.4976,0 -0.6962,0.4001 -0.6962,0.6985 0,0.4971 0.4971,0.698 1.3942,0.698 1.3958,0 3.2893,-0.1016 5.0835,-0.2009 1.6944,-0.0993 3.1878,-0.0993 3.5873,-0.0993 2.592,0 5.5812,0.0993 9.5662,0.1986 4.0872,0.2009 8.9699,0.3002 15.2485,0.3002 4.6835,0 4.9843,-0.3002 5.5806,-2.293 0.6979,-2.4904 1.2966,-7.5734 1.2966,-8.4705 0,-0.8966 -0.2009,-1.2943 -0.5987,-1.2943 -0.4993,0 -0.7972,0.497 -0.8971,1.0957 -0.2978,1.692 -0.9964,3.4885 -2.092,4.7828 -2.0944,2.4921 -5.9802,2.5914 -10.5644,2.5914 -6.8755,0 -10.2642,-0.5986 -11.6606,-1.9928 -1.5951,-1.4951 -1.7936,-6.5787 -1.7936,-19.0348 z"
         style="fill:#663333;fill-rule:evenodd"
         id="path499" />
      <defs
         id="defs506">
        <linearGradient
           id="grad3"
           gradientTransform="matrix(1.7461138,0,0,0.60321528,-5.5373316,-9.0463343)"
           x1="232.27438"
           y1="400.49835"
           x2="399.79398"
           y2="400.49835"
           gradientUnits="userSpaceOnUse">
          <stop
             offset="0%"
             stop-color="#f7971c"
             stop-opacity="1.0000"
             id="stop501" />
          <stop
             offset="100%"
             stop-color="#ed2a5b"
             stop-opacity="1.0000"
             id="stop503" />
        </linearGradient>
      </defs>
      <path
         d="m 472.3835,319.7871 c 16.36726,9.24799 29.40142,13.80368 41.62723,13.80368 14.95265,0 26.26956,-4.45066 32.02818,-7.12614 0.60689,-0.31011 0.80885,-0.60339 0.80885,-1.01844 0,-0.31 -0.20196,-0.62012 -0.60577,-0.62012 -0.30264,0 -0.80885,0.20695 -1.41462,0.41328 -6.97128,2.88233 -14.85258,4.00445 -19.90415,4.00445 -5.05207,0 -20.41097,-0.502 -42.53797,-12.14903 l -20.71299,-10.94047 c 6.66814,-4.45253 17.88437,-16.56436 17.88437,-34.78826 0,-24.01974 -16.97485,-38.82565 -39.70813,-38.82565 -27.88674,0 -39.8083,23.70972 -39.8083,40.4828 0,18.63707 11.51714,40.68902 39.50506,40.68902 5.35532,0 12.22592,-1.55389 15.86227,-3.52043 z m -62.74587,-49.66306 v 0 c 0,-22.67394 12.63024,-34.06249 29.50321,-34.06249 15.96345,0 30.71596,13.35571 30.71596,38.20314 0,30.1293 -18.79328,35.51383 -27.88673,35.51383 -18.1863,0 -32.33244,-15.52982 -32.33244,-39.65448 z m 85.25205,13.9776 v 0 -12.94244 c 0,-13.66582 0,-16.15109 -0.20247,-18.94656 -0.20196,-2.79538 -0.70705,-4.45253 -3.63695,-4.86633 -0.70756,-0.10316 -2.22285,-0.20632 -3.03109,-0.20632 -0.30374,0 -0.70766,-0.41504 -0.70766,-0.72505 0,-0.51883 0.40392,-0.72567 1.41522,-0.72567 4.04077,0 9.39609,0.20684 10.20493,0.20684 0.80712,0 6.36551,-0.20684 8.99156,-0.20684 1.01141,0 1.51651,0.20684 1.51651,0.72567 0,0.31001 -0.40564,0.72505 -0.80885,0.72505 -0.60698,0 -1.11208,0 -2.22295,0.20632 -2.32413,0.4138 -2.82862,1.96717 -3.03169,4.86633 -0.20135,2.79547 -0.20135,5.28074 -0.20135,18.94656 v 12.32055 c 0,12.73611 2.72805,18.01508 6.56747,21.53623 4.34502,4.03687 8.18393,4.76254 13.23601,4.76254 5.45599,0 10.70941,-2.48412 13.74111,-6.21097 4.14266,-5.07442 5.05096,-12.32294 5.05096,-21.32929 V 271.1592 c 0,-13.66582 -0.10007,-16.15109 -0.20135,-18.94656 -0.10118,-2.79538 -0.60628,-4.45253 -3.53567,-4.86633 -0.70817,-0.10316 -2.22346,-0.20632 -3.0317,-0.20632 -0.40442,0 -0.70644,-0.41504 -0.70644,-0.72505 0,-0.51883 0.4033,-0.72567 1.41289,-0.72567 3.94121,0 9.09406,0.20684 9.59916,0.20684 0.60688,0 4.85133,-0.20684 7.47627,-0.20684 1.01252,0 1.41583,0.20684 1.41583,0.72567 0,0.31001 -0.30496,0.72505 -0.70817,0.72505 -0.60638,0 -1.11087,0 -2.22173,0.20632 -2.42603,0.51696 -2.93112,1.96717 -3.13359,4.86633 -0.20134,2.79547 -0.0996,5.28074 -0.0996,18.94656 v 9.42201 c 0,9.52507 -1.21327,20.19034 -8.28634,26.40131 -6.46608,5.69454 -13.33668,6.41969 -18.59072,6.41969 -2.92929,0 -12.2247,-0.20633 -18.49065,-6.21274 -4.34401,-4.14065 -7.779,-10.25022 -7.779,-23.08783 z m 83.83631,-12.94244 v 0 c 0,-13.66582 0,-16.15109 0.10067,-18.94656 0.20368,-3.10549 0.70767,-4.34937 3.13359,-4.86633 1.01019,-0.20632 1.61484,-0.20632 2.22173,-0.20632 0.30435,0 0.70817,-0.41504 0.70817,-0.72505 0,-0.51883 -0.40382,-0.72567 -1.4134,-0.72567 -2.73038,0 -8.4889,0.20684 -8.89271,0.20684 -0.50571,0 -6.06288,-0.20684 -8.99217,-0.20684 -1.0108,0 -1.41411,0.20684 -1.41411,0.72567 0,0.31001 0.30263,0.72505 0.70584,0.72505 0.60699,0 1.71785,0.10316 2.72805,0.31011 1.91971,0.41317 2.62787,1.76021 2.82922,4.76254 0.20186,2.79547 0.20186,5.28074 0.20186,18.94656 v 15.53159 c 0,8.48814 -0.10118,15.42603 -0.50449,19.05024 -0.30253,2.58666 -0.60688,4.24382 -2.32474,4.65948 -0.80884,0.20622 -1.91971,0.41317 -2.72794,0.41317 -0.50449,0 -0.70584,0.41504 -0.70584,0.72505 0,0.51821 0.50388,0.72516 1.4134,0.72516 2.72804,0 8.28521,-0.31188 8.79092,-0.31188 0.40381,0 6.16233,0.31188 11.11444,0.31188 1.0102,0 1.4134,-0.31188 1.4134,-0.72516 0,-0.31001 -0.20135,-0.72505 -0.70584,-0.72505 -0.80823,0 -2.72794,-0.20695 -4.04249,-0.41317 -2.62737,-0.41566 -2.9299,-2.07282 -3.23253,-4.65948 -0.40503,-3.62421 -0.40503,-10.5621 -0.40503,-19.05024 z m 34.53146,0 v 0 c 0,-13.66582 0,-16.15109 0.10118,-18.94656 0.20135,-3.10549 0.70766,-4.45253 3.3332,-4.96949 1.01192,-0.10316 2.32474,-0.20632 2.93163,-0.20632 0.30202,0 0.70523,-0.31188 0.70523,-0.62189 0,-0.51883 -0.50388,-0.72567 -1.4134,-0.72567 -2.72794,0 -9.39608,0.20684 -9.80111,0.20684 -0.50449,0 -6.06105,-0.20684 -10.10415,-0.20684 -1.00959,0 -1.41289,0.20684 -1.41289,0.72567 0,0.31001 0.4033,0.72505 0.70522,0.72505 0.80885,0 2.32474,0.10316 3.03291,0.20632 2.9294,0.4138 3.43561,1.864 3.63757,4.86633 0.20134,2.79547 0.20134,5.28074 0.20134,18.94656 v 15.53159 c 0,8.48814 0,15.42603 -0.5057,19.05024 -0.40381,2.58666 -0.60516,4.24382 -2.32302,4.65948 -0.80884,0.20622 -1.91971,0.41317 -2.72794,0.41317 -0.50631,0 -0.70817,0.41504 -0.70817,0.72505 0,0.51821 0.50621,0.72516 1.41573,0.72516 1.4135,0 3.33493,-0.10556 5.15164,-0.20695 1.71775,-0.10493 3.23425,-0.10493 3.63746,-0.10493 2.62737,0 5.65795,0.10493 9.70044,0.20632 4.14144,0.20872 9.09406,0.31188 15.45713,0.31188 4.75076,0 5.0533,-0.31188 5.66028,-2.3822 0.70584,-2.58676 1.31222,-7.86802 1.31222,-8.7995 0,-0.932 -0.20135,-1.34517 -0.60638,-1.34517 -0.50449,0 -0.80712,0.51633 -0.9078,1.13832 -0.30435,1.76021 -1.01191,3.62421 -2.12278,4.96886 -2.12166,2.58905 -6.06176,2.69284 -10.7088,2.69284 -6.97301,0 -10.40861,-0.62189 -11.82201,-2.07033 -1.61718,-1.55388 -1.81903,-6.83525 -1.81903,-19.7754 z m 51.30425,0 v 0 c 0,-13.66582 0,-16.15109 0.0982,-18.94656 0.20368,-3.10549 0.70827,-4.45253 3.33554,-4.96949 1.00959,-0.10316 2.32474,-0.20632 2.93163,-0.20632 0.30263,0 0.70583,-0.31188 0.70583,-0.62189 0,-0.51883 -0.50448,-0.72567 -1.414,-0.72567 -2.72795,0 -9.39781,0.20684 -9.80101,0.20684 -0.50632,0 -6.06349,-0.20684 -10.10365,-0.20684 -1.0108,0 -1.41411,0.20684 -1.41411,0.72567 0,0.31001 0.40331,0.72505 0.70594,0.72505 0.80885,0 2.32525,0.10316 3.03291,0.20632 2.92929,0.4138 3.43378,1.864 3.63746,4.86633 0.20135,2.79547 0.20135,5.28074 0.20135,18.94656 v 15.53159 c 0,8.48814 0,15.42603 -0.50631,19.05024 -0.40321,2.58666 -0.60628,4.24382 -2.32474,4.65948 -0.80651,0.20622 -1.91971,0.41317 -2.72622,0.41317 -0.5056,0 -0.70756,0.41504 -0.70756,0.72505 0,0.51821 0.50449,0.72516 1.41339,0.72516 1.41584,0 3.33554,-0.10556 5.15397,-0.20695 1.71786,-0.10493 3.23193,-0.10493 3.63757,-0.10493 2.62727,0 5.65784,0.10493 9.70033,0.20632 4.14145,0.20872 9.09406,0.31188 15.45724,0.31188 4.74833,0 5.05329,-0.31188 5.65785,-2.3822 0.70756,-2.58676 1.31515,-7.86802 1.31515,-8.7995 0,-0.932 -0.20195,-1.34517 -0.60759,-1.34517 -0.50388,0 -0.80824,0.51633 -0.90891,1.13832 -0.30263,1.76021 -1.01019,3.62421 -2.12167,4.96886 -2.12096,2.58905 -6.06288,2.69284 -10.71053,2.69284 -6.97006,0 -10.40628,-0.62189 -11.8214,-2.07033 -1.61545,-1.55388 -1.8167,-6.83525 -1.8167,-19.7754 z"
         style="fill:url(#grad3);stroke-width:1.0263"
         id="path508" />
    </g>
    <g
       id="Layer1005"
       transform="matrix(2.5826584,0,0,-1.9394837,-1033.9731,941.09369)">
      <path
         d="M 551.4565,325.6926 H 694.114"
         style="fill:none;stroke:#3a3a3a;stroke-width:1.4851;stroke-linecap:butt;stroke-linejoin:miter;stroke-dasharray:none"
         id="path511" />
      <path
         d="m 400.3923,325.6926 h 79.7352"
         style="fill:none;stroke:#3a3a3a;stroke-width:1.4851;stroke-linecap:butt;stroke-linejoin:miter;stroke-dasharray:none"
         id="path513" />
    </g>
    <text
       x="398.48029"
       y="357.92499"
       id="text518"
       style="font-size:18.6667px;white-space:pre;inline-size:296.856;fill:#483e37"
       transform="matrix(2.8533045,0,0,4.4916257,-1142.951,-1208.3132)"
       xml:space="preserve"><tspan
         x="398.48029"
         y="357.92499"><tspan
           style="fill:#4d4d4d">RESIDENCE CANDOLIM GOA</tspan></tspan></text>
  </g>
</svg>
